<?xml version="1.0" encoding="UTF-8"?>
<svg version="1.1" xmlns="http://www.w3.org/2000/svg" width="512" height="512">
<path d="M0 0 C1.94752409 -0.00807831 1.94752409 -0.00807831 3.93439209 -0.01631981 C7.52278425 -0.03073801 11.11094602 -0.02654115 14.6993506 -0.019153 C18.57539652 -0.01441458 22.45139309 -0.02693715 26.3274231 -0.03717041 C33.9150449 -0.05435081 41.50258387 -0.05519997 49.09022008 -0.04995751 C55.25890734 -0.04591301 61.42757016 -0.04736269 67.59625626 -0.05270576 C68.91414685 -0.0538284 68.91414685 -0.0538284 70.25866149 -0.05497371 C72.04363791 -0.05650522 73.82861432 -0.05804357 75.61359073 -0.05958868 C92.34621297 -0.07331108 109.07878844 -0.06787795 125.81140961 -0.05640347 C141.11046002 -0.04647228 156.40938946 -0.05941023 171.70842122 -0.08333766 C187.42720785 -0.10773586 203.14593816 -0.1173347 218.86474335 -0.11068493 C227.68575249 -0.1071942 236.50666862 -0.10941511 245.32766342 -0.12693596 C252.8371064 -0.14166699 260.34639088 -0.14228168 267.85583077 -0.12486505 C271.68497835 -0.11635988 275.51384289 -0.11419342 279.34297562 -0.1295166 C283.49938702 -0.14594313 287.65511723 -0.13120018 291.81152344 -0.11352539 C293.01425962 -0.1231304 294.21699581 -0.1327354 295.45617855 -0.14263147 C303.80029038 -0.06968965 310.91108907 1.23040534 317.65383911 6.39549255 C323.67036377 13.40830194 326.46006962 19.68023888 325.97024536 29.01268005 C324.84466906 37.3372548 321.66261401 42.32638867 315.42337036 47.8447113 C307.869443 52.72020364 300.81586646 52.81892394 292.06549072 52.77536011 C290.76714133 52.78074565 289.46879194 52.78613118 288.13109863 52.79167992 C284.54270647 52.80609811 280.9545447 52.80190126 277.36614013 52.79451311 C273.4900942 52.78977469 269.61409763 52.80229726 265.73806763 52.81253052 C258.15044582 52.82971092 250.56290685 52.83056008 242.97527064 52.82531761 C236.80658338 52.82127312 230.63792056 52.8227228 224.46923447 52.82806587 C223.15134388 52.82918851 223.15134388 52.82918851 221.80682924 52.83033382 C220.02185282 52.83186533 218.2368764 52.83340367 216.45189999 52.83494879 C199.71927775 52.84867119 182.98670229 52.84323806 166.25408112 52.83176357 C150.95503071 52.82183239 135.65610126 52.83477034 120.35706951 52.85869776 C104.63828287 52.88309597 88.91955256 52.8926948 73.20074737 52.88604504 C64.37973823 52.8825543 55.5588221 52.88477522 46.7378273 52.90229607 C39.22838432 52.9170271 31.71909985 52.91764178 24.20965995 52.90022516 C20.38051237 52.89171998 16.55164783 52.88955352 12.72251511 52.90487671 C8.5661037 52.92130324 4.41037349 52.90656029 0.25396729 52.8888855 C-0.9487689 52.8984905 -2.15150509 52.90809551 -3.39068782 52.91799158 C-11.73479966 52.84504976 -18.84559835 51.54495477 -25.58834839 46.37986755 C-31.60487305 39.36705816 -34.3945789 33.09512123 -33.90475464 23.76268005 C-32.77917833 15.4381053 -29.59712328 10.44897144 -23.35787964 4.9306488 C-15.80395227 0.05515647 -8.75037574 -0.04356383 0 0 Z " fill="#000000" transform="translate(109.96725463867188,229.61231994628906)"/>
<path d="M0 0 C1.94752409 -0.00807831 1.94752409 -0.00807831 3.93439209 -0.01631981 C7.52278425 -0.03073801 11.11094602 -0.02654115 14.6993506 -0.019153 C18.57539652 -0.01441458 22.45139309 -0.02693715 26.3274231 -0.03717041 C33.9150449 -0.05435081 41.50258387 -0.05519997 49.09022008 -0.04995751 C55.25890734 -0.04591301 61.42757016 -0.04736269 67.59625626 -0.05270576 C68.91414685 -0.0538284 68.91414685 -0.0538284 70.25866149 -0.05497371 C72.04363791 -0.05650522 73.82861432 -0.05804357 75.61359073 -0.05958868 C92.34621297 -0.07331108 109.07878844 -0.06787795 125.81140961 -0.05640347 C141.11046002 -0.04647228 156.40938946 -0.05941023 171.70842122 -0.08333766 C187.42720785 -0.10773586 203.14593816 -0.1173347 218.86474335 -0.11068493 C227.68575249 -0.1071942 236.50666862 -0.10941511 245.32766342 -0.12693596 C252.8371064 -0.14166699 260.34639088 -0.14228168 267.85583077 -0.12486505 C271.68497835 -0.11635988 275.51384289 -0.11419342 279.34297562 -0.1295166 C283.49938702 -0.14594313 287.65511723 -0.13120018 291.81152344 -0.11352539 C293.01425962 -0.1231304 294.21699581 -0.1327354 295.45617855 -0.14263147 C303.80029038 -0.06968965 310.91108907 1.23040534 317.65383911 6.39549255 C323.67036377 13.40830194 326.46006962 19.68023888 325.97024536 29.01268005 C324.84466906 37.3372548 321.66261401 42.32638867 315.42337036 47.8447113 C307.869443 52.72020364 300.81586646 52.81892394 292.06549072 52.77536011 C290.76714133 52.78074565 289.46879194 52.78613118 288.13109863 52.79167992 C284.54270647 52.80609811 280.9545447 52.80190126 277.36614013 52.79451311 C273.4900942 52.78977469 269.61409763 52.80229726 265.73806763 52.81253052 C258.15044582 52.82971092 250.56290685 52.83056008 242.97527064 52.82531761 C236.80658338 52.82127312 230.63792056 52.8227228 224.46923447 52.82806587 C223.15134388 52.82918851 223.15134388 52.82918851 221.80682924 52.83033382 C220.02185282 52.83186533 218.2368764 52.83340367 216.45189999 52.83494879 C199.71927775 52.84867119 182.98670229 52.84323806 166.25408112 52.83176357 C150.95503071 52.82183239 135.65610126 52.83477034 120.35706951 52.85869776 C104.63828287 52.88309597 88.91955256 52.8926948 73.20074737 52.88604504 C64.37973823 52.8825543 55.5588221 52.88477522 46.7378273 52.90229607 C39.22838432 52.9170271 31.71909985 52.91764178 24.20965995 52.90022516 C20.38051237 52.89171998 16.55164783 52.88955352 12.72251511 52.90487671 C8.5661037 52.92130324 4.41037349 52.90656029 0.25396729 52.8888855 C-0.9487689 52.8984905 -2.15150509 52.90809551 -3.39068782 52.91799158 C-11.73479966 52.84504976 -18.84559835 51.54495477 -25.58834839 46.37986755 C-31.60487305 39.36705816 -34.3945789 33.09512123 -33.90475464 23.76268005 C-32.77917833 15.4381053 -29.59712328 10.44897144 -23.35787964 4.9306488 C-15.80395227 0.05515647 -8.75037574 -0.04356383 0 0 Z " fill="#000000" transform="translate(109.96725463867188,101.61231994628906)"/>
<path d="M0 0 C1.00394063 -0.00551503 1.00394063 -0.00551503 2.0281629 -0.01114148 C4.27573593 -0.02217335 6.52326271 -0.02602136 8.77085876 -0.02983093 C10.38067268 -0.03609614 11.99048514 -0.04274299 13.60029602 -0.04974365 C18.89273573 -0.07078587 24.18517572 -0.0811486 29.47764587 -0.09111023 C31.30101982 -0.09515822 33.12439362 -0.09927515 34.94776726 -0.10346031 C43.5174472 -0.12251511 52.08711853 -0.13674355 60.65681559 -0.14507228 C70.53890532 -0.15483556 80.42077051 -0.18113005 90.30278116 -0.22157317 C97.9462487 -0.25177746 105.58965204 -0.26654538 113.23317808 -0.26985329 C117.7954059 -0.27219956 122.35739394 -0.28110416 126.91955757 -0.30631447 C131.21650635 -0.32967471 135.51305885 -0.33379666 139.81005478 -0.32355309 C141.38133885 -0.32305948 142.95264294 -0.32932784 144.52386665 -0.34310913 C154.34594412 -0.42439028 163.00186325 -0.0204623 171.06358337 6.15498352 C177.08010803 13.16779291 179.86981388 19.43972984 179.37998962 28.77217102 C178.25441332 37.09674577 175.07235827 42.08587964 168.83311462 47.60420227 C160.52318818 52.96763519 152.066042 52.58172476 142.53062439 52.55122375 C140.91844715 52.55693246 139.30627394 52.56389866 137.69410706 52.57202148 C133.33248669 52.58991247 128.97106796 52.58879222 124.60942197 52.5830791 C120.96139238 52.57998144 117.31340119 52.58608609 113.66537708 52.59211785 C105.05613644 52.60614805 96.44699506 52.60461425 87.8377533 52.59321594 C78.97059015 52.58173523 70.10372948 52.59581299 61.23660618 52.62261242 C53.60916952 52.64479778 45.98182762 52.65140044 38.354361 52.64553601 C33.80512205 52.64217212 29.25607698 52.64454363 24.70686531 52.66178703 C20.42787212 52.67729949 16.1493257 52.67325326 11.87034988 52.65448189 C10.30510605 52.65080791 8.7398288 52.65386958 7.17461586 52.66436768 C-2.72048544 52.72564012 -9.8321025 51.66048949 -18.30751038 46.45967102 C-24.76419165 39.82363749 -26.91923509 32.33771925 -26.84266663 23.29170227 C-26.25199213 16.77809991 -23.24371829 10.70672466 -18.55751038 6.14717102 C-12.3421375 2.16933238 -7.44939804 0.02650667 0 0 Z " fill="#000000" transform="translate(256.55751037597656,357.8528289794922)"/>
</svg>
